<?xml version="1.0" encoding="utf-8"?>
<!-- Generator: Adobe Illustrator 26.5.3, SVG Export Plug-In . SVG Version: 6.00 Build 0)  -->
<svg version="1.1" id="레이어_1" xmlns="http://www.w3.org/2000/svg" xmlns:xlink="http://www.w3.org/1999/xlink" x="0px"
	 y="0px" viewBox="0 0 1214.8 307.6" style="enable-background:new 0 0 1214.8 307.6;" xml:space="preserve">
<style type="text/css">
	.st0{fill:#F8F8F8;stroke:#DDDDDD;stroke-miterlimit:10;}
	.st1{fill:none;stroke:#DDDDDD;stroke-miterlimit:10;}
</style>
<circle class="st0" cx="625.1" cy="148.7" r="111.7"/>
<g>
	<path d="M590.1,151.8c-5.1,0.9-11.1,1-15.4,1l-0.4-3.2c0.9,0,1.9,0,2.9,0v-7.7h-2.2v-3.1h14.6v3.1h-2.2v7.3
		c0.9-0.1,1.7-0.2,2.5-0.3L590.1,151.8z M597.5,159.4c0,3.2-3.6,5.1-9.5,5.1c-5.9,0-9.4-1.9-9.4-5.1c0-3.3,3.6-5.2,9.4-5.2
		C593.9,154.3,597.5,156.2,597.5,159.4z M580.9,149.5c0.8,0,1.7-0.1,2.6-0.1v-7.5h-2.6V149.5z M593.5,159.4c0-1.5-1.9-2.2-5.5-2.2
		c-3.6,0-5.5,0.7-5.5,2.2c0,1.4,1.9,2.2,5.5,2.2C591.6,161.6,593.5,160.9,593.5,159.4z M593.4,149.7h-3.2v-3.1h3.2v-2h-3.2v-3.2h3.2
		v-4.4h4v16.9h-4V149.7z"/>
	<path d="M614.6,139.8c0,8.3-3.1,15.4-12.3,20l-2.2-3c6.4-3.3,9.8-7.7,10.6-13.8h-9v-3.2H614.6z M625.8,150.7H622v13.8h-4v-27.6h4
		v10.6h3.9V150.7z"/>
	<path d="M637.1,144.4c0,4.5,2.2,9.3,6.8,11.2l-2.2,3.1c-3.2-1.4-5.4-4.1-6.6-7.4c-1.2,3.6-3.4,6.6-6.7,8.1l-2.2-3.1
		c4.6-2.1,6.9-7.1,6.9-11.8v-1.5h-5.8v-3.3h15.5v3.3h-5.7V144.4z M649.3,136.9v27.6h-4v-27.6H649.3z"/>
	<path d="M677.6,158.4v3.2h-25v-3.2h6.2v-5.2h-4V150h3.6v-7.8h-3.8v-3.1h21v3.1h-3.7v7.8h3.7v3.1h-4.1v5.2H677.6z M662.2,150h5.6
		v-7.8h-5.6V150z M662.6,158.4h4.8v-5.2h-4.8V158.4z"/>
</g>
<g>
	<path d="M148.4,111.3v2H124v-2H135v-5.8h-8V91.8h2.4v4.8h13.7v-4.8h2.4v13.7h-8v5.8H148.4z M129.4,103.6h13.7v-4.9h-13.7V103.6z"/>
	<path d="M168.1,104.8v3.4h3.4v8.6H169v-6.6h-16.2v-2h3.7v-3.4h-6.4v-2h24.3v2H168.1z M152.8,95.7c0-3.2,3.7-5.2,9.4-5.2
		c5.8,0,9.4,1.9,9.4,5.2c0,3.2-3.6,5.1-9.4,5.1C156.5,100.8,152.8,98.9,152.8,95.7z M155.4,95.7c0,2,2.7,3.2,6.9,3.2
		c4.3,0,6.9-1.2,6.9-3.2c0-2-2.7-3.2-6.9-3.2C158,92.5,155.4,93.7,155.4,95.7z M165.6,104.8H159v3.4h6.6V104.8z"/>
	<path d="M184.1,108.7c2.9-0.1,5.9-0.3,8.7-0.6l0.1,1.8c-5.6,0.9-11.9,1-16.7,1l-0.3-2c1.7,0,3.7,0,5.7-0.1v-8.3h2.4V108.7z
		 M187.8,104.7c0.8-4.5,0.8-7.7,0.8-9.9h-11.2v-2H191v1.5c0,2.2,0,5.7-0.8,10.7L187.8,104.7z M201.2,103.2h-4.3v13.6h-2.5V89.9h2.5
		v11.2h4.3V103.2z"/>
	<path d="M217,104.9c-3-1.1-5.3-3.3-6.5-6.1c-1.1,3.1-3.6,5.6-6.8,6.8l-1.3-2c4-1.5,6.8-5.1,6.8-9v-0.9h-6v-2h14.4v2h-5.9v0.9
		c0,3.5,2.6,6.8,6.5,8.2L217,104.9z M224.6,111.8c0,3.2-3.4,5-9,5s-9-1.8-9-5c0-3.2,3.4-5,9-5S224.6,108.6,224.6,111.8z
		 M222.1,111.8c0-1.9-2.5-3.1-6.5-3.1s-6.5,1.2-6.5,3.1c0,2,2.5,3.1,6.5,3.1S222.1,113.7,222.1,111.8z M222,96.9v-7h2.5v16H222v-7
		h-5.3v-2H222z"/>
	<path d="M249.3,102.6h-12.6v-11h12.6V102.6z M250.2,109.1c0,2.6,4.2,5.2,8.8,5.8l-0.8,1.9c-4-0.6-7.6-2.4-9.2-4.9
		c-1.6,2.6-5.3,4.4-9.4,4.9l-0.8-1.9c4.6-0.5,8.9-3.1,8.9-5.8h-7.9v-1.9h7.9v-2.6h2.5v2.6h7.9v1.9H250.2z M246.9,93.6h-7.8v7.1h7.8
		V93.6z M257.4,105.3h-2.5V89.9h2.5V105.3z"/>
	<path d="M282.6,104.5c-2.9-1.1-5.2-3.3-6.4-6.1c-1.1,3.1-3.5,5.6-6.7,6.8l-1.3-1.9c4.1-1.5,6.7-5.1,6.7-9.2v-2.8h2.5v3
		c0,3.6,2.6,7,6.5,8.3L282.6,104.5z M289.5,111.9c0,3.1-3.4,4.9-8.8,4.9c-5.5,0-8.9-1.8-8.9-4.9c0-3.1,3.4-4.9,8.9-4.9
		C286.1,107,289.5,108.7,289.5,111.9z M287.1,111.9c0-1.9-2.4-3-6.4-3c-4,0-6.4,1.1-6.4,3c0,1.9,2.4,3,6.4,3
		C284.6,114.8,287.1,113.7,287.1,111.9z M293.2,96.8v2h-4v7.3h-2.5V89.9h2.5v6.9H293.2z"/>
	<path d="M318.8,111.6v2h-24.4v-2h10.9v-3.8c-4.7-0.3-7.6-2.1-7.6-5.1c0-3.2,3.4-5.1,8.8-5.1c5.4,0,8.8,1.9,8.8,5.1
		c0,3-2.9,4.8-7.5,5.1v3.8H318.8z M317.5,95.8h-21.8v-2h9.7v-3.5h2.5v3.5h9.6V95.8z M306.6,106c3.9,0,6.3-1.2,6.3-3.2
		c0-2-2.4-3.2-6.3-3.2c-3.9,0-6.4,1.2-6.4,3.2C300.3,104.8,302.7,106,306.6,106z"/>
	<path d="M334.9,105c-3-1-5.3-3.2-6.5-6c-1.1,3-3.6,5.4-6.7,6.5l-1.3-2c4.1-1.4,6.8-4.9,6.8-8.7v-1.1h-6v-2h14.4v2h-5.9v1.1
		c0,3.6,2.6,6.9,6.5,8.2L334.9,105z M323.9,107.6h17.5v9.3H339v-7.3h-15.1V107.6z M345.4,99h-4v7.1H339V89.9h2.5v7h4V99z"/>
	<path d="M371,103.2v2h-24.4v-2h6v-3.8c-2.1-0.9-3.3-2.2-3.3-4c0-3.1,3.6-5,9.4-5c5.9,0,9.4,1.9,9.4,5c0,1.8-1.2,3.2-3.3,4v3.8H371z
		 M368,112c0,3.1-3.4,4.8-9.2,4.8c-5.8,0-9.2-1.7-9.2-4.8s3.4-4.8,9.2-4.8C364.6,107.2,368,108.9,368,112z M358.8,98.5
		c4.3,0,6.9-1.2,6.9-3.1c0-1.9-2.6-3.1-6.9-3.1c-4.3,0-6.9,1.1-6.9,3.1C351.9,97.3,354.5,98.5,358.8,98.5z M365.5,112
		c0-1.8-2.5-2.9-6.7-2.9c-4.2,0-6.7,1.1-6.7,2.9c0,1.8,2.5,2.9,6.7,2.9C363,114.9,365.5,113.8,365.5,112z M355.1,103.2h7.5v-3.1
		c-1.1,0.2-2.4,0.3-3.8,0.3c-1.3,0-2.6-0.1-3.7-0.3V103.2z"/>
</g>
<g>
	<path d="M210.2,204.3c0,6.9-4.9,12.2-12.5,14.7l-1.1-2c6.1-2,10.4-5.9,10.9-10.7H198v-2H210.2z M219.1,226.5v2h-17.7v-8.4h2.5v6.4
		H219.1z M215.9,210.5v-8.3h2.5v19.9h-2.5v-9.6h-5.8v-2H215.9z"/>
	<path d="M235.9,204.2c0,6.8-4.8,11.8-12.6,14.2l-1-2c6.4-1.9,10.4-5.5,10.9-10.2h-9.7v-2H235.9z M243.5,223.8
		c0,3.2-3.4,5.2-8.8,5.2c-5.3,0-8.8-2-8.8-5.2c0-3.3,3.4-5.2,8.8-5.2C240.1,218.6,243.5,220.6,243.5,223.8z M241.1,223.8
		c0-2.1-2.5-3.3-6.3-3.3c-3.9,0-6.3,1.2-6.3,3.3c0,2,2.5,3.3,6.3,3.3C238.6,227.1,241.1,225.9,241.1,223.8z M247.2,209.1v2h-4v7.1
		h-2.5v-16.1h2.5v7H247.2z"/>
	<path d="M255.9,217.3c-4,0-7-2.7-7-6.6s3-6.6,7-6.6c4,0,7,2.7,7,6.6S259.9,217.3,255.9,217.3z M255.9,215.2c2.6,0,4.6-1.9,4.6-4.5
		c0-2.6-2-4.5-4.6-4.5c-2.6,0-4.6,1.9-4.6,4.5C251.3,213.3,253.3,215.2,255.9,215.2z M255,226.5h15.5v2h-17.9V220h2.5V226.5z
		 M273.2,210.4v2h-4v9.6h-2.5v-19.8h2.5v8.2H273.2z"/>
	<path d="M289.1,217.9c-3-1.1-5.3-3.3-6.5-6.1c-1.2,3.1-3.6,5.5-6.8,6.7l-1.3-1.9c4-1.4,6.8-5,6.8-8.8v-1.4h-6v-2h14.4v2h-5.9v1.3
		c0,3.5,2.6,6.9,6.5,8.2L289.1,217.9z M297.4,226.5v2h-18v-8.3h2.5v6.3H297.4z M294.2,209.6v-7.4h2.5v19.7h-2.5v-10.3h-5.4v-2H294.2
		z"/>
</g>
<g>
	<path d="M905.1,111.3v2h-24.4v-2h10.9v-5.8h-8V91.8h2.4v4.8h13.7v-4.8h2.4v13.7h-8v5.8H905.1z M886,103.6h13.7v-4.9H886V103.6z"/>
	<path d="M924.7,104.8v3.4h3.4v8.6h-2.5v-6.6h-16.2v-2h3.7v-3.4h-6.4v-2h24.3v2H924.7z M909.5,95.7c0-3.2,3.7-5.2,9.4-5.2
		c5.8,0,9.4,1.9,9.4,5.2c0,3.2-3.6,5.1-9.4,5.1C913.2,100.8,909.5,98.9,909.5,95.7z M912,95.7c0,2,2.7,3.2,6.9,3.2s6.9-1.2,6.9-3.2
		c0-2-2.7-3.2-6.9-3.2S912,93.7,912,95.7z M922.3,104.8h-6.6v3.4h6.6V104.8z"/>
	<path d="M949.9,106.7c-5.7,1-12.1,1.1-16.8,1.2l-0.3-2c2.1,0,4.6,0,7.2-0.1v-2c-3.1-0.3-5.1-1.8-5.1-4.1c0-2.5,2.5-4.1,6.3-4.1
		c3.8,0,6.3,1.6,6.3,4.1c0,2.3-1.9,3.8-5,4.1v1.9c2.5-0.1,5-0.3,7.3-0.7L949.9,106.7z M948.9,94.4h-15.4v-1.8h6.5v-2.7h2.5v2.7h6.5
		V94.4z M939.2,114.2h15.5v2h-18v-6.7h2.5V114.2z M941.2,102c2.4,0,3.9-0.9,3.9-2.4c0-1.4-1.6-2.4-3.9-2.4c-2.4,0-4,0.9-4,2.4
		C937.2,101.1,938.8,102,941.2,102z M957.7,99.3v2h-3.9v9.6h-2.5V89.9h2.5v9.4H957.7z"/>
	<path d="M972,96.8c-1.7,4.3-5.8,7.5-11.6,9.1l-1-2c6.4-1.9,10.4-5.5,10.9-10.1h-9.5v-2h12.1c0,1-0.1,2-0.3,2.9h6.1v-4.9h2.5V106
		h-2.5v-3.5h-7v-2h7v-3.6H972z M981.3,111.5c0,3.2-3.5,5.2-8.9,5.2s-8.9-2-8.9-5.2s3.5-5.2,8.9-5.2S981.3,108.2,981.3,111.5z
		 M978.9,111.5c0-2-2.5-3.2-6.5-3.2s-6.5,1.2-6.5,3.2c0,2,2.5,3.3,6.5,3.3S978.9,113.5,978.9,111.5z"/>
	<path d="M1006,102.6h-12.6v-11h12.6V102.6z M1006.8,109.1c0,2.6,4.2,5.2,8.8,5.8l-0.8,1.9c-4-0.6-7.7-2.4-9.2-4.9
		c-1.6,2.6-5.3,4.4-9.4,4.9l-0.8-1.9c4.6-0.5,8.9-3.1,8.9-5.8h-7.9v-1.9h7.9v-2.6h2.5v2.6h7.9v1.9H1006.8z M1003.6,93.6h-7.8v7.1
		h7.8V93.6z M1014.1,105.3h-2.5V89.9h2.5V105.3z"/>
	<path d="M1049.4,103.5v2h-10.7v5.4h-2.5v-5.4H1025v-2H1049.4z M1027.8,96c0-3.3,3.7-5.4,9.4-5.4c5.7,0,9.4,2.1,9.4,5.4
		c0,3.3-3.7,5.4-9.4,5.4C1031.5,101.4,1027.8,99.3,1027.8,96z M1030.6,114.2h16.1v2h-18.6v-7.9h2.5V114.2z M1030.3,96
		c0,2.1,2.7,3.4,6.8,3.4c4.1,0,6.8-1.3,6.8-3.4c0-2.1-2.7-3.4-6.8-3.4C1033.1,92.6,1030.3,93.8,1030.3,96z"/>
	<path d="M1063.9,102c-1.2,1.4-3.2,2.3-5.4,2.3c-4,0-6.9-2.6-6.9-6.4c0-3.7,2.9-6.4,6.9-6.4c2.3,0,4.2,0.9,5.4,2.2h6.9v-3.9h2.5
		v15.9h-2.5V102H1063.9z M1058.5,102.2c2.6,0,4.6-1.8,4.6-4.3c0-2.5-1.9-4.3-4.6-4.3c-2.6,0-4.6,1.8-4.6,4.3
		C1053.9,100.4,1055.9,102.2,1058.5,102.2z M1073.4,111.6c0,3.3-3.5,5.2-9,5.2c-5.5,0-8.9-1.9-8.9-5.2c0-3.3,3.4-5.2,8.9-5.2
		C1069.9,106.4,1073.4,108.3,1073.4,111.6z M1071,111.6c0-2-2.5-3.2-6.6-3.2c-4,0-6.5,1.2-6.5,3.2c0,2,2.5,3.2,6.5,3.2
		C1068.5,114.8,1071,113.6,1071,111.6z M1065,95.8c0.2,0.6,0.3,1.3,0.3,2.1c0,0.8-0.1,1.4-0.4,2.1h5.8v-4.2H1065z"/>
	<path d="M1094.1,104.8c-5.6,0.9-12,1.1-16.8,1.1l-0.2-2c1.7,0,3.7,0,5.7-0.1V98h2.4v5.7c2.9-0.1,6-0.4,8.7-0.7L1094.1,104.8z
		 M1088.9,101.1c0.6-3.1,0.7-5.4,0.7-7.1h-11v-2h13.4v1.4c0,1.8,0,4.4-0.7,8L1088.9,101.1z M1083.6,114.2h15.4v2h-17.9v-7.9h2.5
		V114.2z M1102,98.6v2h-3.8v9.5h-2.5V89.9h2.5v8.8H1102z"/>
	<path d="M1107.3,108.3c4.4,0,8.4-0.2,13.1-1l0.2,2c-4.9,0.8-8.9,1-13.6,1h-2.2V100h9.9v-5.6h-10v-2h12.5v9.6h-9.9V108.3z
		 M1125.4,89.9v27h-2.5v-27H1125.4z"/>
</g>
<g>
	<path d="M990.3,223.3v2h-24.3v-2h6v-8.9h2.4v8.9h4.2v-8.9h2.4v8.9H990.3z M984.9,206.9h-16.5v-2h19v3c0,3.4,0,6.9-1,12l-2.4-0.3
		c0.9-4.8,0.9-8.3,0.9-11.7V206.9z"/>
	<path d="M1007.3,217.3c-3.1-1.1-5.5-3.3-6.8-6.1c-1.1,3.1-3.6,5.5-6.8,6.6l-1.3-1.9c4.1-1.4,6.8-4.9,6.8-8.7v-1.1H993v-2h14.8v2
		h-6.1v1.1c0,3.6,2.8,6.9,6.8,8.2L1007.3,217.3z M996.1,219.9h18v9.2h-2.5v-7.2h-15.5V219.9z M1014.1,202.2v16.3h-2.5v-16.3H1014.1z
		"/>
	<path d="M1025.8,216.5c-2.7,0.1-5.2,0.1-7.5,0.1l-0.3-2c5,0,11.6-0.1,17.3-0.8l0.2,1.8c-2.4,0.4-4.9,0.6-7.3,0.8v5.3h-2.5V216.5z
		 M1020.1,207.9c0-2.8,2.7-4.7,6.6-4.7c3.9,0,6.6,1.9,6.6,4.7c0,2.9-2.7,4.7-6.6,4.7C1022.8,212.7,1020.1,210.8,1020.1,207.9z
		 M1040.8,226.5v2h-19v-7.8h2.5v5.8H1040.8z M1022.4,207.9c0,1.7,1.7,2.9,4.3,2.9s4.3-1.1,4.3-2.9c0-1.7-1.7-2.9-4.3-2.9
		S1022.4,206.2,1022.4,207.9z M1037.7,218.1v-15.9h2.5v20.5h-2.5v-2.8h-5.5v-1.8H1037.7z"/>
</g>
<line class="st1" x1="69.1" y1="161.3" x2="424.5" y2="161.3"/>
<line class="st1" x1="825.8" y1="161.3" x2="1181.2" y2="161.3"/>
</svg>
